<?xml version="1.0" encoding="utf-8" standalone="yes"?><svg xmlns="http://www.w3.org/2000/svg" xmlns:xlink="http://www.w3.org/1999/xlink" version="1.1" width="816" height="1056"><!--Generated by Aspose.Words for .NET 23.8.0--><defs><clipPath id="clip001"><path d="M0,0 L627.0667,0 L627.0667,614.7712 L0,614.7712 Z" clip-rule="evenodd" /></clipPath></defs><g><g transform="translate(94.46667,94.46667)"><g><g><text><tspan x="627.0667" y="614.7333" font-family="Times New Roman" font-weight="normal" font-style="normal" font-size="16" fill="#000000"> </tspan></text></g></g></g><g transform="translate(94.46667,94.46667)"><g><g clip-path="url(#clip001)"><g transform="matrix(0.7685583,0,0,0.7685602,0,0)"><g><path d="M710,450 C710,460.9717 682.915,470 650,470 L650,470 C617.085,470 590,460.9717 590,450 L590,450 C590,439.0283 617.085,430 650,430 L650,430 C682.915,430 710,439.0283 710,450 " fill="#d3d3d3" fill-rule="nonzero" /><path d="M410,430 C410,440.9717 382.915,450 350,450 L350,450 C317.085,450 290,440.9717 290,430 L290,430 C290,419.0283 317.085,410 350,410 L350,410 C382.915,410 410,419.0283 410,430 " fill="#d3d3d3" fill-rule="nonzero" /><path d="M437,340 C437,389.3726 396.3726,430 347,430 L347,430 C297.6275,430 257,389.3726 257,340 L257,340 C257,290.6275 297.6275,250 347,250 L347,250 C396.3726,250 437,290.6275 437,340 " fill="#ffa500" fill-rule="nonzero" /><path d="M737,350 C737,399.3726 696.3726,440 647,440 L647,440 C597.6275,440 557,399.3726 557,350 L557,350 C557,300.6275 597.6275,260 647,260 L647,260 C696.3726,260 737,300.6275 737,350 " fill="#ffff00" fill-rule="nonzero" /><path d="M295,370 C295,383.7146 265.6579,395 230,395 L230,395 C194.3421,395 165,383.7146 165,370 L165,370 C165,356.2854 194.3421,345 230,345 L230,345 C265.6579,345 295,356.2854 295,370 " fill="#ffa500" fill-rule="nonzero" /><path d="M377,360 C377,364.3887 369.3259,368 360,368 L360,368 C350.6741,368 343,364.3887 343,360 L343,360 C343,355.6113 350.6741,352 360,352 L360,352 C369.3259,352 377,355.6113 377,360 " fill="#dc143c" fill-rule="nonzero" /><path d="M658,390 C658,398.2288 654.3887,405 650,405 L650,405 C645.6113,405 642,398.2288 642,390 L642,390 C642,381.7712 645.6113,375 650,375 L650,375 C654.3887,375 658,381.7712 658,390 " fill="#dc143c" fill-rule="nonzero" /><path d="M380,300 C380,316.4575 366.4575,330 350,330 L350,330 C333.5425,330 320,316.4575 320,300 L320,300 C320,283.5425 333.5425,270 350,270 L350,270 C366.4575,270 380,283.5425 380,300 " fill="#ffffff" fill-rule="nonzero" /><path d="M420,305 C420,321.4575 406.4575,335 390,335 L390,335 C373.5425,335 360,321.4575 360,305 L360,305 C360,288.5425 373.5425,275 390,275 L390,275 C406.4575,275 420,288.5425 420,305 " fill="#ffffff" fill-rule="nonzero" /><path d="M356,300 C356,303.2915 353.2915,306 350,306 L350,306 C346.7085,306 344,303.2915 344,300 L344,300 C344,296.7085 346.7085,294 350,294 L350,294 C353.2915,294 356,296.7085 356,300 " fill="#000000" fill-rule="nonzero" /><path d="M396,300 C396,303.2915 393.2915,306 390,306 L390,306 C386.7085,306 384,303.2915 384,300 L384,300 C384,296.7085 386.7085,294 390,294 L390,294 C393.2915,294 396,296.7085 396,300 " fill="#000000" fill-rule="nonzero" /><path d="M379,330 C379,334.9373 374.9373,339 370,339 L370,339 C365.0627,339 361,334.9373 361,330 L361,330 C361,325.0628 365.0627,321 370,321 L370,321 C374.9373,321 379,325.0628 379,330 " fill="#000000" fill-rule="nonzero" /><path d="M630,320 C630,336.4575 616.4576,350 600,350 L600,350 C583.5425,350 570,336.4575 570,320 L570,320 C570,303.5425 583.5425,290 600,290 L600,290 C616.4576,290 630,303.5425 630,320 " fill="#ffffff" fill-rule="nonzero" /><path d="M680,325 C680,341.4575 666.4576,355 650,355 L650,355 C633.5425,355 620,341.4575 620,325 L620,325 C620,308.5425 633.5425,295 650,295 L650,295 C666.4576,295 680,308.5425 680,325 " fill="#ffffff" fill-rule="nonzero" /><path d="M605,320 C605,322.7429 602.743,325 600,325 L600,325 C597.2571,325 595,322.7429 595,320 L595,320 C595,317.2571 597.2571,315 600,315 L600,315 C602.743,315 605,317.2571 605,320 " fill="#000000" fill-rule="nonzero" /><path d="M655,325 C655,327.7429 652.743,330 650,330 L650,330 C647.2571,330 645,327.7429 645,325 L645,325 C645,322.2571 647.2571,320 650,320 L650,320 C652.743,320 655,322.2571 655,325 " fill="#000000" fill-rule="nonzero" /><path d="M270,297 L297,272 L272,266 Z" fill="#ffa500" fill-rule="nonzero" /><path d="M270,295 L295,270 L268,255 Z" fill="#000000" fill-rule="nonzero" /><path d="M366,232 L351,251 L382,256 Z" fill="#ffa500" fill-rule="nonzero" /><path d="M365,230 L350,250 L380,255 Z" fill="#000000" fill-rule="nonzero" /><path d="M205,395 L180,360 L220,345 Z" fill="#ffffff" fill-rule="nonzero" /></g></g></g></g></g></g></svg>